<?xml version="1.0" encoding="utf-8"?>
<!-- Generator: Adobe Illustrator 22.0.1, SVG Export Plug-In . SVG Version: 6.00 Build 0)  -->
<svg version="1.1" id="Layer_1" xmlns="http://www.w3.org/2000/svg" xmlns:xlink="http://www.w3.org/1999/xlink" x="0px" y="0px"
	 viewBox="0 0 100 100" style="enable-background:new 0 0 100 100;" xml:space="preserve">
<style type="text/css">
	.st0{fill:url(#SVGID_1_);}
	.st1{fill:#FFFFFF;}
</style>
<g>
	<linearGradient id="SVGID_1_" gradientUnits="userSpaceOnUse" x1="92.1166" y1="100.1926" x2="7.8834" y2="-0.1926">
		<stop  offset="0" style="stop-color:#6610F2"/>
		<stop  offset="1" style="stop-color:#007BFF"/>
	</linearGradient>
	<path class="st0" d="M88,100H12c-6.6,0-12-5.4-12-12V12C0,5.4,5.4,0,12,0h76c6.6,0,12,5.4,12,12v76C100,94.6,94.6,100,88,100z"/>
	<g>
		<path class="st1" d="M30.6,33L41,59.7h-3.9l-2.9-8H22.9l-3,8h-3.6L26.7,33H30.6z M33.1,48.6l-4.4-12.5h-0.1L24,48.6H33.1z"/>
		<path class="st1" d="M46.4,40.3V43h0.1c0.5-1.1,1.3-1.9,2.5-2.3s2.4-0.7,3.7-0.7c1.5,0,2.8,0.3,3.9,0.8c1.1,0.5,2,1.3,2.8,2.2
			c0.7,0.9,1.3,2,1.7,3.2c0.4,1.2,0.6,2.5,0.6,3.9c0,1.4-0.2,2.7-0.5,3.9c-0.4,1.2-0.9,2.3-1.6,3.2c-0.7,0.9-1.7,1.6-2.8,2.1
			c-1.1,0.5-2.4,0.8-3.9,0.8c-0.5,0-1-0.1-1.6-0.1c-0.6-0.1-1.2-0.3-1.7-0.5c-0.6-0.2-1.1-0.5-1.6-0.9c-0.5-0.4-0.9-0.9-1.3-1.4
			h-0.1V67h-3.2V40.3H46.4z M57.8,47.2c-0.2-0.9-0.6-1.6-1.1-2.3c-0.5-0.7-1.1-1.2-1.9-1.6c-0.8-0.4-1.7-0.6-2.7-0.6
			c-1.1,0-2,0.2-2.7,0.6c-0.7,0.4-1.4,1-1.8,1.7c-0.5,0.7-0.8,1.5-1,2.3c-0.2,0.9-0.3,1.8-0.3,2.7c0,0.9,0.1,1.9,0.3,2.7
			c0.2,0.9,0.6,1.7,1.1,2.3c0.5,0.7,1.1,1.2,1.9,1.6c0.8,0.4,1.7,0.6,2.8,0.6c1.1,0,2-0.2,2.7-0.6c0.7-0.4,1.3-1,1.8-1.7
			c0.4-0.7,0.8-1.5,1-2.4c0.2-0.9,0.3-1.8,0.3-2.8C58.2,48.9,58.1,48.1,57.8,47.2z"/>
		<path class="st1" d="M68.6,40.3V43h0.1c0.5-1.1,1.3-1.9,2.5-2.3c1.1-0.5,2.4-0.7,3.7-0.7c1.5,0,2.8,0.3,3.9,0.8
			c1.1,0.5,2,1.3,2.8,2.2c0.7,0.9,1.3,2,1.7,3.2c0.4,1.2,0.6,2.5,0.6,3.9c0,1.4-0.2,2.7-0.5,3.9c-0.4,1.2-0.9,2.3-1.6,3.2
			c-0.7,0.9-1.7,1.6-2.8,2.1c-1.1,0.5-2.4,0.8-3.9,0.8c-0.5,0-1-0.1-1.6-0.1c-0.6-0.1-1.2-0.3-1.7-0.5c-0.6-0.2-1.1-0.5-1.6-0.9
			c-0.5-0.4-0.9-0.9-1.3-1.4h-0.1V67h-3.2V40.3H68.6z M80,47.2c-0.2-0.9-0.6-1.6-1.1-2.3s-1.1-1.2-1.9-1.6c-0.8-0.4-1.7-0.6-2.7-0.6
			c-1.1,0-2,0.2-2.7,0.6c-0.7,0.4-1.4,1-1.8,1.7c-0.5,0.7-0.8,1.5-1,2.3c-0.2,0.9-0.3,1.8-0.3,2.7c0,0.9,0.1,1.9,0.3,2.7
			c0.2,0.9,0.6,1.7,1.1,2.3c0.5,0.7,1.1,1.2,1.9,1.6s1.7,0.6,2.8,0.6c1.1,0,2-0.2,2.7-0.6c0.7-0.4,1.3-1,1.8-1.7
			c0.4-0.7,0.8-1.5,1-2.4c0.2-0.9,0.3-1.8,0.3-2.8C80.4,48.9,80.2,48.1,80,47.2z"/>
	</g>
</g>
</svg>
