<?xml version="1.0" encoding="utf-8"?>
<!-- Generator: Adobe Illustrator 22.0.1, SVG Export Plug-In . SVG Version: 6.00 Build 0)  -->
<svg version="1.1" id="Layer_1" xmlns="http://www.w3.org/2000/svg" xmlns:xlink="http://www.w3.org/1999/xlink" x="0px" y="0px"
	 viewBox="0 0 100 34" style="enable-background:new 0 0 100 34;" xml:space="preserve">
<style type="text/css">
	.st0{fill:url(#SVGID_1_);}
</style>
<path d="M26.4,0l10.4,26.7h-3.9l-2.9-8H18.7l-3,8H12L22.4,0H26.4z M28.8,15.6L24.4,3.2h-0.1l-4.5,12.5H28.8z"/>
<path d="M42.2,7.3V10h0.1c0.5-1.1,1.3-1.9,2.5-2.3s2.4-0.7,3.7-0.7c1.5,0,2.8,0.3,3.9,0.8c1.1,0.5,2,1.3,2.8,2.2
	c0.7,0.9,1.3,2,1.7,3.2c0.4,1.2,0.6,2.5,0.6,3.9c0,1.4-0.2,2.7-0.5,3.9c-0.4,1.2-0.9,2.3-1.6,3.2c-0.7,0.9-1.7,1.6-2.8,2.1
	c-1.1,0.5-2.4,0.8-3.9,0.8c-0.5,0-1-0.1-1.6-0.1c-0.6-0.1-1.2-0.3-1.7-0.5c-0.6-0.2-1.1-0.5-1.6-0.9c-0.5-0.4-0.9-0.9-1.3-1.4h-0.1
	V34H39V7.3H42.2z M53.6,14.2c-0.2-0.9-0.6-1.6-1.1-2.3s-1.1-1.2-1.9-1.6C49.9,9.9,49,9.7,48,9.7c-1.1,0-2,0.2-2.7,0.6
	c-0.7,0.4-1.4,1-1.8,1.7c-0.5,0.7-0.8,1.5-1,2.3c-0.2,0.9-0.3,1.8-0.3,2.7c0,0.9,0.1,1.9,0.3,2.7c0.2,0.9,0.6,1.7,1.1,2.3
	c0.5,0.7,1.1,1.2,1.9,1.6c0.8,0.4,1.7,0.6,2.8,0.6c1.1,0,2-0.2,2.7-0.6c0.7-0.4,1.3-1,1.8-1.7c0.4-0.7,0.8-1.5,1-2.4
	c0.2-0.9,0.3-1.8,0.3-2.8C54,15.9,53.8,15.1,53.6,14.2z"/>
<path d="M64.4,7.3V10h0.1c0.5-1.1,1.3-1.9,2.5-2.3c1.1-0.5,2.4-0.7,3.7-0.7c1.5,0,2.8,0.3,3.9,0.8c1.1,0.5,2,1.3,2.8,2.2
	s1.3,2,1.7,3.2c0.4,1.2,0.6,2.5,0.6,3.9c0,1.4-0.2,2.7-0.5,3.9c-0.4,1.2-0.9,2.3-1.6,3.2c-0.7,0.9-1.7,1.6-2.8,2.1
	c-1.1,0.5-2.4,0.8-3.9,0.8c-0.5,0-1-0.1-1.6-0.1c-0.6-0.1-1.2-0.3-1.7-0.5c-0.6-0.2-1.1-0.5-1.6-0.9c-0.5-0.4-0.9-0.9-1.3-1.4h-0.1
	V34h-3.2V7.3H64.4z M75.8,14.2c-0.2-0.9-0.6-1.6-1.1-2.3s-1.1-1.2-1.9-1.6c-0.8-0.4-1.7-0.6-2.7-0.6c-1.1,0-2,0.2-2.7,0.6
	c-0.7,0.4-1.4,1-1.8,1.7c-0.5,0.7-0.8,1.5-1,2.3c-0.2,0.9-0.3,1.8-0.3,2.7c0,0.9,0.1,1.9,0.3,2.7c0.2,0.9,0.6,1.7,1.1,2.3
	c0.5,0.7,1.1,1.2,1.9,1.6s1.7,0.6,2.8,0.6c1.1,0,2-0.2,2.7-0.6c0.7-0.4,1.3-1,1.8-1.7c0.4-0.7,0.8-1.5,1-2.4
	c0.2-0.9,0.3-1.8,0.3-2.8C76.1,15.9,76,15.1,75.8,14.2z"/>
<linearGradient id="SVGID_1_" gradientUnits="userSpaceOnUse" x1="86.8835" y1="25.9761" x2="83.0267" y2="21.3797">
	<stop  offset="0" style="stop-color:#6610F2"/>
	<stop  offset="1" style="stop-color:#007BFF"/>
</linearGradient>
<circle class="st0" cx="85" cy="23.7" r="3"/>
</svg>
